<svg xmlns="http://www.w3.org/2000/svg" xmlns:xlink="http://www.w3.org/1999/xlink" width="500" zoomAndPan="magnify" viewBox="0 0 375 374.999991" height="500" preserveAspectRatio="xMidYMid meet" version="1.0"><path fill="#d12675" d="M 333.882812 152.835938 C 333.882812 153.8125 333.882812 155.917969 333.882812 155.917969 C 333.316406 229.039062 187.488281 328.925781 187.488281 328.925781 C 187.488281 328.925781 168.1875 315.691406 143.574219 295.335938 C 217.972656 251.15625 267.875 170.082031 268.148438 77.335938 C 305.257812 82.425781 333.882812 114.304688 333.882812 152.835938 " fill-opacity="1" fill-rule="nonzero"/><path fill="#ed167a" d="M 268.148438 77.335938 C 267.875 170.082031 217.972656 251.15625 143.574219 295.335938 C 125.542969 280.441406 104.675781 261.699219 86.523438 241.539062 C 138.679688 223.683594 178.066406 178.375 187.488281 122.867188 C 199.132812 95.710938 226.164062 76.601562 257.648438 76.601562 C 261.222656 76.601562 264.722656 76.847656 268.148438 77.335938 " fill-opacity="1" fill-rule="nonzero"/><path fill="#ed3188" d="M 187.488281 122.867188 C 178.066406 178.375 138.679688 223.683594 86.523438 241.539062 C 61.300781 213.628906 41.265625 182.949219 41.117188 155.917969 C 41.117188 155.917969 41.117188 153.8125 41.117188 152.835938 C 41.117188 110.730469 75.246094 76.601562 117.347656 76.601562 C 148.835938 76.601562 175.867188 95.710938 187.488281 122.867188 " fill-opacity="1" fill-rule="nonzero"/></svg>